<?xml version="1.0" standalone="no"?>
<!DOCTYPE svg PUBLIC "-//W3C//DTD SVG 20010904//EN"
 "http://www.w3.org/TR/2001/REC-SVG-20010904/DTD/svg10.dtd">
<svg version="1.0" xmlns="http://www.w3.org/2000/svg"
 width="512.000000pt" height="512.000000pt" viewBox="0 0 512.000000 512.000000"
 preserveAspectRatio="xMidYMid meet">

<g transform="translate(0.000000,512.000000) scale(0.100000,-0.100000)"
fill="#000000" stroke="none">
<path d="M1809 4055 c-15 -8 -32 -29 -38 -46 -13 -36 -15 -688 -4 -1152 l6
-287 787 0 788 0 7 384 c4 211 4 389 1 395 -5 8 -106 11 -332 11 l-325 0 -24
25 -25 24 0 331 0 330 -407 0 c-335 -1 -413 -3 -434 -15z m1172 -903 c16 -18
29 -41 29 -53 0 -33 -29 -79 -56 -89 -15 -6 -183 -10 -394 -10 -211 0 -379 4
-394 10 -27 10 -56 56 -56 89 0 26 45 79 73 84 12 3 190 4 395 3 l374 -1 29
-33z m-8 -342 c55 -43 40 -136 -24 -159 -21 -7 -153 -11 -389 -11 -236 0 -368
4 -389 11 -64 23 -79 116 -24 159 25 19 38 20 413 20 375 0 388 -1 413 -20z"/>
<path d="M2830 3777 l0 -237 231 0 231 0 -130 138 c-72 75 -176 182 -231 237
l-101 100 0 -238z"/>
<path d="M1443 3350 c-57 -12 -91 -31 -134 -77 -74 -77 -74 -74 -77 -405 l-3
-298 175 0 176 0 0 395 0 395 -47 -1 c-27 -1 -67 -5 -90 -9z"/>
<path d="M3540 2966 l0 -396 175 0 175 0 0 273 c0 318 -6 351 -73 424 -53 58
-105 81 -201 90 l-76 6 0 -397z"/>
<path d="M1312 2553 c48 -2 129 -2 180 0 51 1 12 3 -87 3 -99 0 -141 -2 -93
-3z"/>
<path d="M2162 2553 c219 -2 577 -2 795 0 219 1 40 2 -397 2 -437 0 -616 -1
-398 -2z"/>
<path d="M3622 2553 c48 -2 129 -2 180 0 51 1 12 3 -87 3 -99 0 -141 -2 -93
-3z"/>
</g>
</svg>
